<svg width="40" height="40" viewBox="0 0 40 40" fill="none" xmlns="http://www.w3.org/2000/svg">
<path d="M20 6.66675C17.3629 6.66675 14.785 7.44873 12.5924 8.91382C10.3997 10.3789 8.69074 12.4613 7.68157 14.8976C6.6724 17.334 6.40836 20.0149 6.92283 22.6013C7.4373 25.1877 8.70717 27.5635 10.5719 29.4282C12.4366 31.2929 14.8123 32.5627 17.3988 33.0772C19.9852 33.5917 22.6661 33.3276 25.1024 32.3185C27.5388 31.3093 29.6211 29.6003 31.0862 27.4077C32.5513 25.215 33.3333 22.6372 33.3333 20.0001C33.3294 16.4651 31.9234 13.0759 29.4238 10.5763C26.9241 8.07663 23.535 6.67063 20 6.66675ZM20 32.0001C17.6266 32.0001 15.3065 31.2963 13.3331 29.9777C11.3597 28.6591 9.82166 26.785 8.91341 24.5923C8.00516 22.3996 7.76752 19.9868 8.23054 17.659C8.69356 15.3312 9.83645 13.193 11.5147 11.5148C13.1929 9.83657 15.3311 8.69368 17.6589 8.23066C19.9867 7.76764 22.3995 8.00528 24.5922 8.91353C26.7849 9.82178 28.659 11.3598 29.9776 13.3332C31.2962 15.3066 32 17.6267 32 20.0001C31.9964 23.1816 30.731 26.2318 28.4813 28.4815C26.2317 30.7311 23.1815 31.9966 20 32.0001ZM26.4693 14.4761L14.4693 26.4667C14.3436 26.5882 14.1752 26.6554 14.0004 26.6539C13.8256 26.6523 13.6584 26.5822 13.5348 26.4586C13.4111 26.335 13.341 26.1678 13.3395 25.993C13.338 25.8182 13.4052 25.6498 13.5266 25.5241L25.5266 13.5334C25.6524 13.412 25.8208 13.3448 25.9956 13.3463C26.1704 13.3478 26.3376 13.4179 26.4612 13.5415C26.5848 13.6651 26.6549 13.8323 26.6564 14.0071C26.6579 14.1819 26.5907 14.3503 26.4693 14.4761ZM18.6666 15.3334C18.6666 14.6741 18.4711 14.0297 18.1049 13.4815C17.7386 12.9334 17.218 12.5061 16.6089 12.2538C15.9998 12.0015 15.3296 11.9355 14.683 12.0641C14.0364 12.1927 13.4425 12.5102 12.9763 12.9764C12.5101 13.4426 12.1926 14.0365 12.064 14.6831C11.9354 15.3297 12.0014 15.9999 12.2537 16.609C12.506 17.2181 12.9332 17.7387 13.4814 18.105C14.0296 18.4713 14.674 18.6667 15.3333 18.6667C16.2174 18.6667 17.0652 18.3156 17.6903 17.6904C18.3154 17.0653 18.6666 16.2175 18.6666 15.3334ZM13.3333 15.3334C13.3333 14.9379 13.4506 14.5512 13.6704 14.2223C13.8901 13.8934 14.2025 13.637 14.5679 13.4857C14.9334 13.3343 15.3355 13.2947 15.7235 13.3718C16.1114 13.449 16.4678 13.6395 16.7475 13.9192C17.0272 14.1989 17.2177 14.5553 17.2949 14.9432C17.372 15.3312 17.3324 15.7333 17.1811 16.0988C17.0297 16.4642 16.7733 16.7766 16.4444 16.9964C16.1155 17.2161 15.7289 17.3334 15.3333 17.3334C14.8029 17.3334 14.2942 17.1227 13.9191 16.7476C13.544 16.3726 13.3333 15.8638 13.3333 15.3334ZM24.6666 21.3334C24.0074 21.3334 23.3629 21.5289 22.8147 21.8952C22.2666 22.2615 21.8393 22.782 21.587 23.3911C21.3347 24.0002 21.2687 24.6704 21.3973 25.3171C21.526 25.9637 21.8434 26.5576 22.3096 27.0238C22.7758 27.4899 23.3697 27.8074 24.0163 27.936C24.6629 28.0647 25.3332 27.9986 25.9422 27.7463C26.5513 27.4941 27.0719 27.0668 27.4382 26.5187C27.8045 25.9705 28 25.326 28 24.6667C28 23.7827 27.6488 22.9348 27.0237 22.3097C26.3985 21.6846 25.5507 21.3334 24.6666 21.3334ZM24.6666 26.6667C24.2711 26.6667 23.8844 26.5494 23.5555 26.3297C23.2266 26.1099 22.9702 25.7976 22.8189 25.4321C22.6675 25.0667 22.6279 24.6645 22.7051 24.2766C22.7822 23.8886 22.9727 23.5322 23.2524 23.2525C23.5321 22.9728 23.8885 22.7823 24.2765 22.7052C24.6644 22.628 25.0665 22.6676 25.432 22.819C25.7975 22.9704 26.1098 23.2267 26.3296 23.5556C26.5493 23.8845 26.6666 24.2712 26.6666 24.6667C26.6666 25.1972 26.4559 25.7059 26.0808 26.081C25.7058 26.456 25.1971 26.6667 24.6666 26.6667Z" fill="#255F82"/>
</svg>
